<svg width="19" height="18" viewBox="0 0 19 18" fill="none" xmlns="http://www.w3.org/2000/svg">
<g clip-path="url(#clip0_151_499)">
<path fill-rule="evenodd" clip-rule="evenodd" d="M3.25992 2.47998C2.82878 2.47998 2.47992 2.82885 2.47992 3.25998V14.18C2.47992 14.6111 2.82879 14.96 3.25992 14.96H4.81992V16.52H3.25992C1.96805 16.52 0.919922 15.4719 0.919922 14.18V3.25998C0.919922 1.96811 1.96805 0.919983 3.25992 0.919983H11.0599C12.3518 0.919983 13.3999 1.96811 13.3999 3.25998V5.59998H11.8399V3.25998C11.8399 2.82884 11.4911 2.47998 11.0599 2.47998H3.25992ZM16.3585 8.10144C16.0172 7.76019 15.4627 7.76019 15.1214 8.10144L8.64391 14.579L8.23258 16.2273L9.88095 15.816L16.3585 9.33848C16.6997 8.99723 16.6997 8.44269 16.3585 8.10144ZM14.0185 6.99848C14.9691 6.04786 16.5108 6.04786 17.4614 6.99848C18.412 7.94911 18.412 9.49082 17.4614 10.4414L10.9839 16.919C10.7843 17.1185 10.5345 17.2602 10.2603 17.3288L7.34899 18.057C7.08391 18.1225 6.8021 18.0448 6.60862 17.8513C6.41514 17.6578 6.33745 17.376 6.40296 17.1109L7.13116 14.1997C7.19972 13.9254 7.3414 13.6756 7.54098 13.476L14.0185 6.99848Z" fill="white"/>
</g>
<defs>
<clipPath id="clip0_151_499">
<rect width="19" height="18" fill="white"/>
</clipPath>
</defs>
</svg>
