<svg width="96" height="96" viewBox="0 0 96 96" fill="none" xmlns="http://www.w3.org/2000/svg">
<g id="noun-menu-592439-FFFFFF 1">
<g id="Group">
<path id="Vector" d="M34.1817 40.3987H50.9817C52.043 40.3987 52.9017 39.54 52.9017 38.4787C52.9017 37.4175 52.043 36.5587 50.9817 36.5587H34.1817C33.1204 36.5587 32.2617 37.4175 32.2617 38.4787C32.2617 39.54 33.1205 40.3987 34.1817 40.3987Z" fill="white"/>
<path id="Vector_2" d="M34.1817 49.9987H62.5017C63.563 49.9987 64.4217 49.1399 64.4217 48.0787C64.4217 47.0174 63.563 46.1587 62.5017 46.1587H34.1817C33.1204 46.1587 32.2617 47.0174 32.2617 48.0787C32.2617 49.1399 33.1205 49.9987 34.1817 49.9987Z" fill="white"/>
<path id="Vector_3" d="M62.5017 55.6013H34.1817C33.1204 55.6013 32.2617 56.4601 32.2617 57.5213C32.2617 58.5826 33.1205 59.4413 34.1817 59.4413H62.5017C63.563 59.4413 64.4217 58.5826 64.4217 57.5213C64.4217 56.4601 63.563 55.6013 62.5017 55.6013Z" fill="white"/>
</g>
</g>
</svg>
